{"asset":{"version":"2.0","generator":"VECTARY"},"nodes":[{"translation":[-0.04438734817504883,0.0009915000200271557,-0.0019922027587890414],"scale":[0.001,0.001,0.001],"rotation":[0,0,0,1],"name":"Buffer Layer","mesh":0},{"translation":[-0.04438734817504883,0.0009915000200271557,-0.0019922027587890414],"scale":[0.001,0.001,0.001],"rotation":[0,0,0,1],"name":"Buffer Layer0","mesh":1},{"translation":[-0.04438734817504883,0.0009915000200271557,-0.0019922027587890414],"scale":[0.001,0.001,0.001],"rotation":[0,0,0,1],"name":"Buffer Layer1","mesh":2}],"materials":[{"pbrMetallicRoughness":{"baseColorFactor":[0.0004934523547474455,0.0004934523547474455,0.0004934523547474455,1],"metallicFactor":0,"roughnessFactor":0.7},"name":"07___Default","emissiveFactor":[0,0,0],"alphaMode":"OPAQUE","doubleSided":false},{"pbrMetallicRoughness":{"baseColorFactor":[1,1,1,1],"metallicFactor":0,"roughnessFactor":0.7},"name":"13___Default","emissiveFactor":[0,0,0],"alphaMode":"OPAQUE","doubleSided":false},{"pbrMetallicRoughness":{"baseColorFactor":[0.05637948999763223,0.0006384168659427806,0.0006384168659427806,1],"metallicFactor":0,"roughnessFactor":0.7},"name":"08___Default","emissiveFactor":[0,0,0],"alphaMode":"OPAQUE","doubleSided":false}],"meshes":[{"primitives":[{"mode":4,"attributes":{"POSITION":1,"NORMAL":2},"material":0,"indices":0}]},{"primitives":[{"mode":4,"attributes":{"POSITION":4,"NORMAL":5},"material":1,"indices":3}]},{"primitives":[{"mode":4,"attributes":{"POSITION":7,"NORMAL":8},"material":2,"indices":6}]}],"accessors":[{"bufferView":0,"byteOffset":0,"componentType":5125,"count":15150,"type":"SCALAR"},{"bufferView":1,"byteOffset":0,"componentType":5126,"count":2616,"max":[115.47480010986328,90.66459655761719,27.08810043334961],"min":[-50.942298889160156,-0.9915000200271606,-24.315099716186523],"type":"VEC3"},{"bufferView":2,"byteOffset":0,"componentType":5126,"count":2616,"type":"VEC3"},{"bufferView":3,"byteOffset":0,"componentType":5125,"count":6741,"type":"SCALAR"},{"bufferView":4,"byteOffset":0,"componentType":5126,"count":1705,"max":[139.7169952392578,122.29450225830078,97.37920379638672],"min":[-47.52220153808594,2.4551000595092773,-97.11319732666016],"type":"VEC3"},{"bufferView":5,"byteOffset":0,"componentType":5126,"count":1705,"type":"VEC3"},{"bufferView":6,"byteOffset":0,"componentType":5125,"count":1761,"type":"SCALAR"},{"bufferView":7,"byteOffset":0,"componentType":5126,"count":409,"max":[123.72450256347656,122.44539642333984,112.78050231933594],"min":[-21.508399963378906,41.339500427246094,-108.79609680175781],"type":"VEC3"},{"bufferView":8,"byteOffset":0,"componentType":5126,"count":409,"type":"VEC3"}],"bufferViews":[{"buffer":0,"byteOffset":0,"byteLength":60600,"target":34963},{"buffer":0,"byteOffset":60600,"byteLength":31392,"target":34962},{"buffer":0,"byteOffset":91992,"byteLength":31392,"target":34962},{"buffer":0,"byteOffset":123384,"byteLength":26964,"target":34963},{"buffer":0,"byteOffset":150348,"byteLength":20460,"target":34962},{"buffer":0,"byteOffset":170808,"byteLength":20460,"target":34962},{"buffer":0,"byteOffset":191268,"byteLength":7044,"target":34963},{"buffer":0,"byteOffset":198312,"byteLength":4908,"target":34962},{"buffer":0,"byteOffset":203220,"byteLength":4908,"target":34962}],"scene":0,"scenes":[{"nodes":[0,1,2],"name":"Project Name"}],"extensionsUsed":["KHR_texture_transform"],"buffers":[{"byteLength":208128,"uri":"ProjectName.bin"}]}